# Blender v2.80 (sub 75) OBJ File: ''
# www.blender.org
o Cube
v 16.000000 16.000000 -16.000000
v 16.000000 -16.000000 -16.000000
v 16.000000 16.000000 16.000000
v 16.000000 -16.000000 16.000000
v -16.000000 16.000000 -16.000000
v -16.000000 -16.000000 -16.000000
v -16.000000 16.000000 16.000000
v -16.000000 -16.000000 16.000000
vt 0.000000 0.000000
vt 0.000000 1.000000
vt 1.000000 1.000000
vt 1.000000 0.000000
vt 0.000000 0.000000
vt 0.000000 1.000000
vt 1.000000 0.000000
vt 0.000000 0.000000
vt 0.000000 1.000000
vt 1.000000 1.000000
vt 1.000000 0.000000
vt 0.000000 0.000000
vt 1.000000 1.000000
vt 1.000000 0.000000
vt 0.000000 0.000000
vt 0.000000 1.000000
vt 1.000000 1.000000
vt 1.000000 0.000000
vt 0.000000 1.000000
vt 1.000000 1.000000
vn 0.0000 -1.0000 0.0000
vn 0.0000 0.0000 -1.0000
vn 1.0000 0.0000 0.0000
vn 0.0000 1.0000 0.0000
vn -1.0000 0.0000 0.0000
vn 0.0000 0.0000 1.0000
s off
f 1/1/1 3/2/1 7/3/1 5/4/1
f 4/5/2 8/6/2 7/3/2 3/7/2
f 8/8/3 6/9/3 5/10/3 7/11/3
f 6/12/4 8/6/4 4/13/4 2/14/4
f 2/15/5 4/16/5 3/17/5 1/18/5
f 6/12/6 2/19/6 1/20/6 5/4/6
