# Blender v2.80 (sub 75) OBJ File: ''
# www.blender.org
o Plane
v -1.000000 0.173648 0.984808
v 1.000000 0.173648 0.984808
v -1.000000 -0.173648 -0.984808
v 1.000000 -0.173648 -0.984808
v -1.000000 0.173648 0.984808
v 1.000000 0.173648 0.984808
v -1.000000 -0.173648 -0.984808
v 1.000000 -0.173648 -0.984808
vt 0.000000 0.000000
vt 1.000000 0.000000
vt 1.000000 1.000000
vt 0.000000 1.000000
vt 0.000000 0.000000
vt 1.000000 0.000000
vt 1.000000 1.000000
vt 0.000000 1.000000
vn 0.0000 0.9848 -0.1736
vn 0.0000 -0.9848 0.1736
s off
f 1/1/1 2/2/1 4/3/1 3/4/1
f 5/5/2 7/6/2 8/7/2 6/8/2
